<?xml version="1.0" encoding="UTF-8" standalone="no"?>
<!-- Created with Inkscape (http://www.inkscape.org/) -->

<svg
   width="158.28999mm"
   height="158.34578mm"
   viewBox="0 0 158.28999 158.34578"
   version="1.1"
   id="svg1"
   xml:space="preserve"
   inkscape:version="1.4.2 (ebf0e940d0, 2025-05-08)"
   sodipodi:docname="customize.svg"
   inkscape:export-filename="customize.png"
   inkscape:export-xdpi="96"
   inkscape:export-ydpi="96"
   xmlns:inkscape="http://www.inkscape.org/namespaces/inkscape"
   xmlns:sodipodi="http://sodipodi.sourceforge.net/DTD/sodipodi-0.dtd"
   xmlns:xlink="http://www.w3.org/1999/xlink"
   xmlns="http://www.w3.org/2000/svg"
   xmlns:svg="http://www.w3.org/2000/svg"><sodipodi:namedview
     id="namedview1"
     pagecolor="#505050"
     bordercolor="#eeeeee"
     borderopacity="1"
     inkscape:showpageshadow="0"
     inkscape:pageopacity="0"
     inkscape:pagecheckerboard="0"
     inkscape:deskcolor="#505050"
     inkscape:document-units="mm"
     inkscape:zoom="1"
     inkscape:cx="284.5"
     inkscape:cy="137"
     inkscape:window-width="2560"
     inkscape:window-height="1368"
     inkscape:window-x="0"
     inkscape:window-y="0"
     inkscape:window-maximized="1"
     inkscape:current-layer="g99"><inkscape:page
       x="0"
       y="0"
       width="158.28998"
       height="158.34578"
       id="page2"
       margin="0"
       bleed="0" /></sodipodi:namedview><defs
     id="defs1"><linearGradient
       id="linearGradient1"
       inkscape:collect="always"><stop
         style="stop-color:#800000;stop-opacity:1;"
         offset="0"
         id="stop1" /><stop
         style="stop-color:#983a00;stop-opacity:0.85750002;"
         offset="0.12095056"
         id="stop3" /><stop
         style="stop-color:#e3e400;stop-opacity:0.74250001;"
         offset="0.33074823"
         id="stop4" /><stop
         style="stop-color:#23aa00;stop-opacity:0.68124998;"
         offset="0.51009446"
         id="stop5" /><stop
         style="stop-color:#00afd4;stop-opacity:0.67000002;"
         offset="0.69645834"
         id="stop6" /><stop
         style="stop-color:#0f00a6;stop-opacity:0.63125002;"
         offset="0.87652957"
         id="stop7" /><stop
         style="stop-color:#2d01c2;stop-opacity:0.53750002;"
         offset="1"
         id="stop2" /></linearGradient><inkscape:path-effect
       effect="mirror_symmetry"
       start_point="109.13712,51.267558"
       end_point="109.13712,184.18167"
       center_point="109.13712,117.72461"
       id="path-effect5"
       is_visible="true"
       lpeversion="1.2"
       lpesatellites=""
       mode="vertical"
       discard_orig_path="false"
       fuse_paths="false"
       oposite_fuse="false"
       split_items="false"
       split_open="false"
       link_styles="false" /><inkscape:path-effect
       effect="mirror_symmetry"
       start_point="109.13712,51.267558"
       end_point="109.13712,184.18167"
       center_point="109.13712,117.72461"
       id="path-effect4"
       is_visible="true"
       lpeversion="1.2"
       lpesatellites=""
       mode="vertical"
       discard_orig_path="false"
       fuse_paths="false"
       oposite_fuse="false"
       split_items="false"
       split_open="false"
       link_styles="false" /><linearGradient
       inkscape:collect="always"
       xlink:href="#linearGradient1"
       id="linearGradient2"
       x1="83.872917"
       y1="20.108335"
       x2="140.22917"
       y2="140.49374"
       gradientUnits="userSpaceOnUse" /></defs><rect
     style="display:inline;fill:url(#linearGradient2);fill-opacity:1;stroke:#ffffff;stroke-width:3.49;stroke-linejoin:round;stroke-dasharray:none;stroke-opacity:1;paint-order:markers fill stroke"
     id="rect1"
     width="135.63928"
     height="135.63928"
     x="11.325353"
     y="11.353248"
     ry="6.0761037" /><rect
     style="display:inline;fill:#ffffff;fill-opacity:1;stroke:none;stroke-width:3.32021;stroke-linejoin:round;stroke-dasharray:none;stroke-opacity:1;paint-order:markers fill stroke"
     id="rect3"
     width="73.149391"
     height="150.79346"
     x="6.0909238"
     y="3.5546844"
     ry="6.0761037" /><g
     inkscape:label="Layer 1"
     inkscape:groupmode="layer"
     id="layer1"
     transform="translate(-26.320526,-33.259087)"
     style="display:none"><path
       style="fill:#aa87de;stroke:#271a47;stroke-width:1.219;stroke-dasharray:none;stroke-opacity:1"
       d="m 134.53913,164.36529 c 0.003,-0.15135 0.3256,-1.02412 0.7203,-1.93947 0.83291,-1.93161 2.63148,-4.79468 4.23512,-6.74174 1.16689,-1.41674 1.51057,-1.71912 9.71632,-8.54869 3.87552,-3.22556 14.21487,-11.99302 16.66203,-14.1289 0.59697,-0.52102 1.81053,0.1249 2.14125,1.13964 l 0.26333,0.808 -1.70042,1.79994 c -0.93527,0.98997 -5.13306,5.3662 -9.32849,9.72494 -4.1954,4.35875 -8.67,9.0725 -9.94355,10.47499 -3.42362,3.77024 -7.0401,6.23397 -10.6291,7.24108 -1.85161,0.51957 -2.14038,0.54258 -2.13679,0.17021 z"
       id="path14" /><path
       style="fill:#e9ddaf;stroke:#271a47;stroke-width:1.219;stroke-dasharray:none;stroke-opacity:1"
       d="m 148.29983,173.10851 c -1.54896,-0.78161 -2.30837,-1.94738 -2.41239,-3.70333 -0.15508,-2.61787 1.55816,-4.56557 4.14313,-4.71007 1.18737,-0.0664 1.49196,0.007 2.47149,0.58573 2.43263,1.44023 2.9526,4.63954 1.10112,6.77484 -1.41035,1.62657 -3.38822,2.01922 -5.30335,1.05283 z"
       id="path15" /><path
       style="fill:#8080ff;stroke:#271a47;stroke-width:1.219;stroke-dasharray:none;stroke-opacity:1"
       d="m 149.97175,182.89509 c -10.95773,-1.22384 -18.63483,-4.55205 -24.81612,-10.75842 -5.9189,-5.94288 -8.8906,-13.22998 -8.87629,-21.76613 0.0134,-8.027 2.75579,-14.42019 7.71333,-17.98196 5.5186,-3.96489 13.26044,-5.22029 20.95074,-3.39733 3.81439,0.90417 7.0768,2.36561 10.70329,4.79464 l 2.08383,1.39576 -1.21625,1.12831 c -0.66896,0.62057 -1.5106,1.40037 -1.87034,1.73291 l -0.65408,0.6046 -1.62859,-1.11741 c -4.10316,-2.81523 -8.436,-4.32926 -12.96418,-4.53011 -3.24856,-0.14408 -5.58697,0.17803 -8.22595,1.13313 -4.54527,1.64502 -7.39468,4.48906 -8.82959,8.81291 -0.93968,2.83165 -1.12974,4.37801 -1.01148,8.22952 0.16102,5.24348 1.29607,9.20747 3.72536,13.0101 1.35473,2.12063 4.09548,4.95901 6.38733,6.61493 6.36648,4.59992 17.47021,7.69367 23.46778,6.53864 4.87516,-0.93887 5.33341,-2.22736 3.14625,-8.8463 -2.50881,-7.59226 -2.04427,-9.93672 2.45158,-12.37291 3.23715,-1.75415 4.02906,-2.6718 4.02906,-4.66875 0,-1.25541 -0.61648,-3.01453 -1.43927,-4.10686 l -0.55916,-0.74233 1.70508,-1.8714 1.70508,-1.8714 0.5442,0.68766 c 3.1136,3.93448 3.93991,5.64959 3.95448,8.20805 0.015,2.62263 -1.38907,4.55698 -4.51325,6.21803 -2.43298,1.29355 -3.48879,2.11885 -3.99427,3.12212 -1.0579,2.0998 -0.80914,3.76952 1.46304,9.81932 1.55088,4.12934 1.65409,4.51215 1.66181,6.1639 0.0148,3.16065 -1.20156,4.55273 -4.72392,5.40643 -2.30405,0.55844 -7.28045,0.75535 -10.3695,0.41035 z"
       id="path16" /><path
       style="fill:#aaeeff;stroke:#271a47;stroke-width:1.219;stroke-dasharray:none;stroke-opacity:1"
       d="m 126.06228,156.10976 c -0.88342,-0.44945 -1.67529,-1.55386 -1.87081,-2.6092 -0.18361,-0.99108 0.63482,-2.66829 1.62687,-3.3339 1.47687,-0.99092 3.48507,-0.51143 4.67627,1.11651 0.63067,0.8619 0.63067,2.73812 0,3.60001 -1.12961,1.54377 -2.86492,2.02399 -4.43233,1.22658 z"
       id="path17" /><path
       style="fill:#afe9af;stroke:#271a47;stroke-width:1.219;stroke-dasharray:none;stroke-opacity:1"
       d="m 130.02346,145.70972 c -1.08848,-0.67203 -1.61481,-1.67793 -1.51211,-2.8899 0.1139,-1.3441 0.79298,-2.26849 2.01316,-2.74036 1.26858,-0.49059 2.38925,-0.18958 3.32888,0.8941 0.90528,1.04403 1.05301,2.01089 0.5005,3.27565 -0.77212,1.76751 -2.75175,2.43516 -4.33043,1.46051 z"
       id="path18" /><path
       style="fill:#e9afaf;stroke:#271a47;stroke-width:1.219;stroke-dasharray:none;stroke-opacity:1"
       d="m 139.97145,141.37042 c -0.17936,-0.0664 -0.55551,-0.33098 -0.83591,-0.58799 -2.21245,-2.02796 -0.91707,-5.48888 2.05585,-5.49266 2.96182,-0.004 4.07256,4.18433 1.53147,5.7746 -0.704,0.44058 -1.99888,0.58462 -2.75141,0.30605 z"
       id="path19" /></g><g
     inkscape:label="Layer 1"
     id="g85"
     style="display:inline;fill:#f4d7ee;fill-opacity:1;stroke:#271a47;stroke-width:0.999856;stroke-dasharray:none;stroke-opacity:1"
     transform="matrix(1.4972157,0,0,1.4972157,-84.256823,-98.852489)"
     inkscape:export-filename="g85.png"
     inkscape:export-xdpi="802.32483"
     inkscape:export-ydpi="802.32483"><g
       id="g99"
       style="fill:#f4d7ee;fill-opacity:1;stroke:#271a47;stroke-width:0.999856;stroke-dasharray:none;stroke-opacity:1"><g
         id="g77"
         style="fill:#ffffff;fill-opacity:1;stroke:#29156a;stroke-width:0.999856;stroke-dasharray:none;stroke-opacity:1"
         transform="matrix(0.79570304,0,0,0.79570304,22.296383,25.230462)"><path
           style="fill:#1a1a1a;fill-opacity:1;stroke:#29156a;stroke-width:0.999856;stroke-dasharray:none;stroke-opacity:1"
           d="m 87.364822,120.87492 c 3.836176,7.07312 18.601688,26.83717 19.717598,7.87401 0.0497,-10.02409 -0.85762,-9.44118 -7.873961,-15.45519 C 89.312293,104.2147 74.987569,91.493392 68.94882,86.125136 44.18932,71.522225 63.740455,145.32594 84.566698,142.34948 51.060244,105.48625 61.034864,67.347 87.364822,120.87492 Z m 43.544608,0 c -3.83618,7.07312 -18.60169,26.83717 -19.7176,7.87401 -0.0497,-10.02409 0.85762,-9.44118 7.87396,-15.45519 9.89617,-9.07904 24.22089,-21.800348 30.25964,-27.168604 24.7595,-14.602911 5.20836,59.200804 -15.61788,56.224344 33.50645,-36.86323 23.53183,-75.00248 -2.79812,-21.47456 z"
           id="path71"
           sodipodi:nodetypes="cccccc" /><path
           id="path83"
           style="display:inline;fill:#ffeeaa;fill-opacity:1;stroke:#29156a;stroke-width:0.999856;stroke-dasharray:none;stroke-opacity:1"
           d="m 142.15128,198.63862 c 6.83114,5.47333 13.11959,5.83335 14.73491,7.86498 -4.82795,-0.69463 -10.11546,-0.77315 -14.71685,0.0444 -4.60139,-0.81761 -9.55044,-0.72522 -14.37839,-0.0306 1.61532,-2.03163 7.52893,-2.40499 14.36033,-7.87887 z"
           transform="matrix(-1,0,0,1,251.28937,-47.804896)" /><path
           id="path74"
           style="fill:#ffffff;fill-opacity:1;stroke:#29156a;stroke-width:0.999856;stroke-dasharray:none;stroke-opacity:1"
           d="m 83.125226,148.90568 10.925589,3.91489 -11.538637,0.34774 11.558084,0.78066 -10.800109,4.0376 12.246606,-3.27453 -0.46488,-1.17239 0.0065,-0.46534 0.424133,-1.14877 z m 52.023874,0 -12.1577,3.01986 0.20975,1.25249 -0.0417,0.40607 -0.40191,1.12794 12.24661,3.27453 -10.80011,-4.0376 11.55808,-0.78066 -11.53863,-0.34774 z"
           sodipodi:nodetypes="cccccccccccccccccccc" /><path
           style="fill:#ffffff;fill-opacity:1;stroke:#29156a;stroke-width:0.999856;stroke-dasharray:none;stroke-opacity:1"
           d="m 104.57859,147.92813 c -3.63865,-8.96971 -5.275827,-1.19057 -10.077201,-7.59241 -1.081836,8.83493 6.287821,13.05903 10.077201,7.59241 z m 9.11707,0 c 3.63865,-8.96971 5.27583,-1.19057 10.0772,-7.59241 1.08184,8.83493 -6.28782,13.05903 -10.0772,7.59241 z"
           id="path75"
           sodipodi:nodetypes="ccc"
           inkscape:path-effect="#path-effect4"
           inkscape:original-d="m 104.57859,147.92813 c -3.63865,-8.96971 -5.275827,-1.19057 -10.077201,-7.59241 -1.081836,8.83493 6.287821,13.05903 10.077201,7.59241 z" /><path
           id="path77"
           style="fill:#ffe680;fill-opacity:1;stroke:#29156a;stroke-width:0.999856;stroke-dasharray:none;stroke-opacity:1"
           d="m 94.489301,158.84919 14.644159,3.92184 14.28022,-3.9098 c -5.30751,-0.23135 -8.61292,-0.17582 -14.27744,0.24401 -5.66453,-0.41978 -9.339432,-0.48741 -14.646939,-0.25605 z" /></g><g
         id="g84"
         transform="matrix(-1,0,0,1,251.28937,-47.804895)"
         style="fill:#f4d7ee;fill-opacity:1;stroke:#271a47;stroke-width:0.999856;stroke-dasharray:none;stroke-opacity:1" /><path
         style="fill:#ffffff;stroke:none;stroke-width:0;stroke-linejoin:bevel;paint-order:markers fill stroke;stroke-opacity:1;stroke-dasharray:none;stroke-linecap:butt"
         d="m 416.64038,406.75 c 0.41713,-0.6875 3.48681,-4.4 6.82152,-8.25 22.39347,-25.85383 47.81095,-64.53227 61.11201,-92.99576 9.34058,-19.98828 16.80495,-41.06315 20.72123,-58.50424 1.64618,-7.33122 2.14135,-12.9244 2.16901,-24.5 0.0345,-14.43767 -0.0691,-15.21362 -2.76238,-20.69825 -9.27965,-18.89685 -30.31601,-11.24028 -55.64965,20.25471 -14.62219,18.17843 -33.34412,48.53041 -47.99879,77.81561 C 379.114,343.71461 344.69087,382 327.21053,382 c -11.06758,0 -17.18156,-18.05594 -15.89935,-46.95432 1.01656,-22.91105 3.40541,-27.4907 23.07981,-44.24595 7.29762,-6.21485 25.38254,-22.28677 40.18871,-35.71538 14.80616,-13.42861 44.83859,-40.42861 66.73873,-60 34.53874,-30.86608 40.83696,-36.08087 47.5,-39.32899 18.93067,-9.22837 31.45207,-4.46924 37.25399,14.15951 2.00112,6.42515 4.06213,24.53017 3.40353,29.89849 -0.18128,1.47765 -0.59335,7.02778 -0.91572,12.33363 -1.97343,32.48089 -16.77832,82.53668 -35.44865,119.85301 -21.21281,42.39795 -45.13449,68.34298 -68.66388,74.47161 -7.18529,1.87153 -8.80906,1.92943 -7.80732,0.27839 z"
         id="path8"
         transform="matrix(0.17671691,0,0,0.17671691,56.275674,66.024213)" /></g></g><path
     d="m 63.776742,102.63281 c -0.885118,0.0573 -1.624915,0.12332 -2.025638,0.17616 -3.9544,0.54164 -6.746258,2.00364 -8.181818,4.29352 -0.427144,0.67815 -0.819062,1.66014 -1.061259,2.65976 l -0.118902,0.48439 -0.607691,0.022 c -0.598884,0.022 -0.607691,0.022 -0.713378,0.14532 -0.101269,0.11891 -0.105688,0.14091 -0.105688,0.91155 v 0.79263 l 0.1277,0.14091 c 0.127698,0.1409 0.136522,0.14532 0.568059,0.15853 l 0.435949,0.0175 0.03084,0.75302 c 0.09689,2.56729 0.867502,4.73385 2.29866,6.46005 0.405126,0.4888 1.347488,1.39154 1.823074,1.74823 1.03924,0.77943 2.008022,1.27263 3.148546,1.60291 4.504841,1.31226 9.194635,-0.79706 13.673054,-6.14742 2.805068,-3.35112 4.038067,-6.47326 3.536059,-8.9701 -0.02192,-0.11448 -0.0089,-0.1321 0.21137,-0.22898 0.541638,-0.2378 1.158138,-0.34789 1.933164,-0.34789 0.867501,0.005 1.730599,0.21137 2.245813,0.54164 0.32146,0.20696 0.312654,0.18936 0.259813,0.7266 -0.127699,1.25502 0.259808,2.87113 1.070065,4.49165 1.378315,2.74344 4.328701,6.11658 7.036889,8.03654 2.580486,1.8275 5.301888,2.57609 7.926408,2.17977 2.091696,-0.31265 3.923569,-1.26382 5.526469,-2.86232 0.85869,-0.8543 1.41794,-1.62933 1.91555,-2.64216 0.68696,-1.40473 1.03043,-2.82268 1.08768,-4.52247 l 0.0263,-0.82347 0.6121,-0.0133 0.6165,-0.0133 0.12776,-0.14531 0.12764,-0.14091 v -0.79712 -0.79706 l -0.12764,-0.1277 -0.12776,-0.1277 h -0.75301 -0.7486 l -0.0441,-0.16733 c -0.0219,-0.0881 -0.0748,-0.29063 -0.11011,-0.44916 -0.11009,-0.4976 -0.41393,-1.36511 -0.64292,-1.83629 -0.91594,-1.92438 -2.49241,-3.25427 -4.936391,-4.16583 -1.255007,-0.47117 -2.703783,-0.76622 -4.729421,-0.95997 -0.748605,-0.0749 -3.430375,-0.0749 -4.183382,-0.005 -1.439964,0.1409 -2.470398,0.28623 -3.355512,0.47558 l -0.497581,0.10563 h -8.093747 c -7.952829,0 -8.102552,0 -8.512082,-0.0881 -0.920344,-0.19816 -2.162148,-0.3743 -3.386339,-0.48439 -0.519619,-0.0485 -2.866719,-0.0925 -3.30267,-0.0617 z m 20.124269,1.77025 c -1.065659,0.731 -1.779035,1.51485 -2.179761,2.38676 -0.07046,0.15853 -0.132104,0.29504 -0.140902,0.30385 -0.0045,0.009 -0.16294,-0.0617 -0.352286,-0.15853 -0.6165,-0.31706 -1.197769,-0.47118 -2.016832,-0.53724 -0.951167,-0.0749 -2.016828,0.0837 -2.761031,0.40954 l -0.158528,0.0704 -0.180536,-0.32588 c -0.400723,-0.73099 -1.065662,-1.45759 -1.761424,-1.92437 -0.193746,-0.13211 -0.352287,-0.251 -0.356688,-0.27302 0,-0.0175 2.254621,-0.0309 5.01125,-0.0264 4.725021,0 5.002444,0.005 4.89676,0.0749 z"
     id="path1-6"
     style="fill:#8400f5;fill-opacity:0.699772;stroke:#29156a;stroke-width:1.19833;stroke-dasharray:none;stroke-opacity:1"
     inkscape:label="path1-6" /></svg>
