<?xml version="1.0" encoding="UTF-8" standalone="no"?>
<!-- Created with Inkscape (http://www.inkscape.org/) -->

<svg
   width="158.28999mm"
   height="158.34578mm"
   viewBox="0 0 158.28999 158.34578"
   version="1.1"
   id="svg1"
   xml:space="preserve"
   inkscape:version="1.4.2 (ebf0e940d0, 2025-05-08)"
   sodipodi:docname="customize.svg"
   inkscape:export-filename="customize.svg"
   inkscape:export-xdpi="96"
   inkscape:export-ydpi="96"
   xmlns:inkscape="http://www.inkscape.org/namespaces/inkscape"
   xmlns:sodipodi="http://sodipodi.sourceforge.net/DTD/sodipodi-0.dtd"
   xmlns="http://www.w3.org/2000/svg"
   xmlns:svg="http://www.w3.org/2000/svg"><sodipodi:namedview
     id="namedview1"
     pagecolor="#505050"
     bordercolor="#eeeeee"
     borderopacity="1"
     inkscape:showpageshadow="0"
     inkscape:pageopacity="0"
     inkscape:pagecheckerboard="0"
     inkscape:deskcolor="#505050"
     inkscape:document-units="mm"
     inkscape:zoom="0.50000002"
     inkscape:cx="223.99999"
     inkscape:cy="-307.99999"
     inkscape:window-width="2560"
     inkscape:window-height="1366"
     inkscape:window-x="0"
     inkscape:window-y="0"
     inkscape:window-maximized="1"
     inkscape:current-layer="svg1"><inkscape:page
       x="0"
       y="0"
       width="158.28998"
       height="158.34578"
       id="page2"
       margin="0"
       bleed="0" /></sodipodi:namedview><defs
     id="defs1"><inkscape:path-effect
       effect="mirror_symmetry"
       start_point="109.13712,82.321271"
       end_point="109.13712,188.08143"
       center_point="109.13712,135.20135"
       id="path-effect5"
       is_visible="true"
       lpeversion="1.2"
       lpesatellites=""
       mode="vertical"
       discard_orig_path="false"
       fuse_paths="false"
       oposite_fuse="false"
       split_items="false"
       split_open="false"
       link_styles="false" /><inkscape:path-effect
       effect="mirror_symmetry"
       start_point="109.13712,82.321271"
       end_point="109.13712,188.08143"
       center_point="109.13712,135.20135"
       id="path-effect4"
       is_visible="true"
       lpeversion="1.2"
       lpesatellites=""
       mode="vertical"
       discard_orig_path="false"
       fuse_paths="false"
       oposite_fuse="false"
       split_items="false"
       split_open="false"
       link_styles="false" /></defs><g
     inkscape:label="Layer 1"
     inkscape:groupmode="layer"
     id="layer1"
     transform="translate(-26.320526,-33.259087)"
     style="display:inline"><path
       style="fill:#aa87de;stroke-width:1.219;stroke:#271a47;stroke-opacity:1;stroke-dasharray:none"
       d="m 134.53913,164.36529 c 0.003,-0.15135 0.3256,-1.02412 0.7203,-1.93947 0.83291,-1.93161 2.63148,-4.79468 4.23512,-6.74174 1.16689,-1.41674 1.51057,-1.71912 9.71632,-8.54869 3.87552,-3.22556 14.21487,-11.99302 16.66203,-14.1289 0.59697,-0.52102 1.81053,0.1249 2.14125,1.13964 l 0.26333,0.808 -1.70042,1.79994 c -0.93527,0.98997 -5.13306,5.3662 -9.32849,9.72494 -4.1954,4.35875 -8.67,9.0725 -9.94355,10.47499 -3.42362,3.77024 -7.0401,6.23397 -10.6291,7.24108 -1.85161,0.51957 -2.14038,0.54258 -2.13679,0.17021 z"
       id="path14" /><path
       style="fill:#e9ddaf;stroke-width:1.219;stroke:#271a47;stroke-opacity:1;stroke-dasharray:none"
       d="m 148.29983,173.10851 c -1.54896,-0.78161 -2.30837,-1.94738 -2.41239,-3.70333 -0.15508,-2.61787 1.55816,-4.56557 4.14313,-4.71007 1.18737,-0.0664 1.49196,0.007 2.47149,0.58573 2.43263,1.44023 2.9526,4.63954 1.10112,6.77484 -1.41035,1.62657 -3.38822,2.01922 -5.30335,1.05283 z"
       id="path15" /><path
       style="fill:#8080ff;stroke-width:1.219;stroke:#271a47;stroke-opacity:1;stroke-dasharray:none"
       d="m 149.97175,182.89509 c -10.95773,-1.22384 -18.63483,-4.55205 -24.81612,-10.75842 -5.9189,-5.94288 -8.8906,-13.22998 -8.87629,-21.76613 0.0134,-8.027 2.75579,-14.42019 7.71333,-17.98196 5.5186,-3.96489 13.26044,-5.22029 20.95074,-3.39733 3.81439,0.90417 7.0768,2.36561 10.70329,4.79464 l 2.08383,1.39576 -1.21625,1.12831 c -0.66896,0.62057 -1.5106,1.40037 -1.87034,1.73291 l -0.65408,0.6046 -1.62859,-1.11741 c -4.10316,-2.81523 -8.436,-4.32926 -12.96418,-4.53011 -3.24856,-0.14408 -5.58697,0.17803 -8.22595,1.13313 -4.54527,1.64502 -7.39468,4.48906 -8.82959,8.81291 -0.93968,2.83165 -1.12974,4.37801 -1.01148,8.22952 0.16102,5.24348 1.29607,9.20747 3.72536,13.0101 1.35473,2.12063 4.09548,4.95901 6.38733,6.61493 6.36648,4.59992 17.47021,7.69367 23.46778,6.53864 4.87516,-0.93887 5.33341,-2.22736 3.14625,-8.8463 -2.50881,-7.59226 -2.04427,-9.93672 2.45158,-12.37291 3.23715,-1.75415 4.02906,-2.6718 4.02906,-4.66875 0,-1.25541 -0.61648,-3.01453 -1.43927,-4.10686 l -0.55916,-0.74233 1.70508,-1.8714 1.70508,-1.8714 0.5442,0.68766 c 3.1136,3.93448 3.93991,5.64959 3.95448,8.20805 0.015,2.62263 -1.38907,4.55698 -4.51325,6.21803 -2.43298,1.29355 -3.48879,2.11885 -3.99427,3.12212 -1.0579,2.0998 -0.80914,3.76952 1.46304,9.81932 1.55088,4.12934 1.65409,4.51215 1.66181,6.1639 0.0148,3.16065 -1.20156,4.55273 -4.72392,5.40643 -2.30405,0.55844 -7.28045,0.75535 -10.3695,0.41035 z"
       id="path16" /><path
       style="fill:#aaeeff;stroke-width:1.219;stroke:#271a47;stroke-opacity:1;stroke-dasharray:none"
       d="m 126.06228,156.10976 c -0.88342,-0.44945 -1.67529,-1.55386 -1.87081,-2.6092 -0.18361,-0.99108 0.63482,-2.66829 1.62687,-3.3339 1.47687,-0.99092 3.48507,-0.51143 4.67627,1.11651 0.63067,0.8619 0.63067,2.73812 0,3.60001 -1.12961,1.54377 -2.86492,2.02399 -4.43233,1.22658 z"
       id="path17" /><path
       style="fill:#afe9af;stroke-width:1.219;stroke:#271a47;stroke-opacity:1;stroke-dasharray:none"
       d="m 130.02346,145.70972 c -1.08848,-0.67203 -1.61481,-1.67793 -1.51211,-2.8899 0.1139,-1.3441 0.79298,-2.26849 2.01316,-2.74036 1.26858,-0.49059 2.38925,-0.18958 3.32888,0.8941 0.90528,1.04403 1.05301,2.01089 0.5005,3.27565 -0.77212,1.76751 -2.75175,2.43516 -4.33043,1.46051 z"
       id="path18" /><path
       style="fill:#e9afaf;stroke-width:1.219;stroke:#271a47;stroke-opacity:1;stroke-dasharray:none"
       d="m 139.97145,141.37042 c -0.17936,-0.0664 -0.55551,-0.33098 -0.83591,-0.58799 -2.21245,-2.02796 -0.91707,-5.48888 2.05585,-5.49266 2.96182,-0.004 4.07256,4.18433 1.53147,5.7746 -0.704,0.44058 -1.99888,0.58462 -2.75141,0.30605 z"
       id="path19" /></g><g
     inkscape:label="Layer 1"
     id="g85"
     style="display:inline;fill:#f4d7ee;fill-opacity:1;stroke-width:0.99985593;stroke-dasharray:none;stroke:#271a47;stroke-opacity:1"
     transform="matrix(1.4972157,0,0,1.4972157,-84.256822,-123.2527)"
     inkscape:export-filename="g85.png"
     inkscape:export-xdpi="802.32483"
     inkscape:export-ydpi="802.32483"><g
       id="g99"
       style="fill:#f4d7ee;fill-opacity:1;stroke-width:0.99985593;stroke-dasharray:none;stroke:#271a47;stroke-opacity:1"><g
         id="g77"
         style="fill:#f4d7ee;fill-opacity:1;stroke-width:0.99985593;stroke-dasharray:none;stroke:#271a47;stroke-opacity:1"><path
           style="fill:#f4d7ee;fill-opacity:1;stroke-width:0.99985593;stroke-dasharray:none;stroke:#271a47;stroke-opacity:1"
           d="m 87.364822,120.87492 c 3.836176,7.07312 18.601688,26.83717 19.717598,7.87401 0.0497,-10.02409 -0.85762,-9.44118 -7.873961,-15.45519 C 89.312293,104.2147 74.987569,91.493392 68.94882,86.125136 44.18932,71.522225 63.740455,145.32594 84.566698,142.34948 51.060244,105.48625 61.034864,67.347 87.364822,120.87492 Z m 43.544608,0 c -3.83618,7.07312 -18.60169,26.83717 -19.7176,7.87401 -0.0497,-10.02409 0.85762,-9.44118 7.87396,-15.45519 9.89617,-9.07904 24.22089,-21.800348 30.25964,-27.168604 24.7595,-14.602911 5.20836,59.200804 -15.61788,56.224344 33.50645,-36.86323 23.53183,-75.00248 -2.79812,-21.47456 z"
           id="path71"
           sodipodi:nodetypes="cccccc"
           inkscape:path-effect="#path-effect5"
           inkscape:original-d="m 87.364822,120.87492 c 3.836176,7.07312 18.601688,26.83717 19.717598,7.87401 0.0497,-10.02409 -0.85762,-9.44118 -7.873961,-15.45519 C 89.312293,104.2147 74.987569,91.493392 68.94882,86.125136 44.18932,71.522225 63.740455,145.32594 84.566698,142.34948 51.060244,105.48625 61.034864,67.347 87.364822,120.87492 Z" /><path
           id="path83"
           style="display:inline;fill:#f4d7ee;fill-opacity:1;stroke-width:0.99985593;stroke-dasharray:none;stroke:#271a47;stroke-opacity:1"
           d="m 142.15128,198.63862 c 6.83114,5.47333 13.11959,5.83335 14.73491,7.86498 -4.82795,-0.69463 -10.11546,-0.77315 -14.71685,0.0444 -4.60139,-0.81761 -9.55044,-0.72522 -14.37839,-0.0306 1.61532,-2.03163 7.52893,-2.40499 14.36033,-7.87887 z"
           transform="matrix(-1,0,0,1,251.28937,-47.804896)" /><path
           id="path74"
           style="fill:#f4d7ee;fill-opacity:1;stroke-width:0.99985593;stroke-dasharray:none;stroke:#271a47;stroke-opacity:1"
           d="m 83.125226,148.90568 10.925589,3.91489 -11.538637,0.34774 11.558084,0.78066 -10.800109,4.0376 12.246606,-3.27453 -0.46488,-1.17239 0.0065,-0.46534 0.424133,-1.14877 z m 52.023874,0 -12.1577,3.01986 0.20975,1.25249 -0.0417,0.40607 -0.40191,1.12794 12.24661,3.27453 -10.80011,-4.0376 11.55808,-0.78066 -11.53863,-0.34774 z"
           sodipodi:nodetypes="cccccccccccccccccccc" /><path
           style="fill:#f4d7ee;fill-opacity:1;stroke-width:0.99985593;stroke-dasharray:none;stroke:#271a47;stroke-opacity:1"
           d="m 104.57859,147.92813 c -3.63865,-8.96971 -5.275827,-1.19057 -10.077201,-7.59241 -1.081836,8.83493 6.287821,13.05903 10.077201,7.59241 z m 9.11707,0 c 3.63865,-8.96971 5.27583,-1.19057 10.0772,-7.59241 1.08184,8.83493 -6.28782,13.05903 -10.0772,7.59241 z"
           id="path75"
           sodipodi:nodetypes="ccc"
           inkscape:path-effect="#path-effect4"
           inkscape:original-d="m 104.57859,147.92813 c -3.63865,-8.96971 -5.275827,-1.19057 -10.077201,-7.59241 -1.081836,8.83493 6.287821,13.05903 10.077201,7.59241 z" /><path
           id="path77"
           style="fill:#f4d7ee;fill-opacity:1;stroke-width:0.99985593;stroke-dasharray:none;stroke:#271a47;stroke-opacity:1"
           d="m 94.489301,158.84919 14.644159,3.92184 14.28022,-3.9098 c -5.30751,-0.23135 -8.61292,-0.17582 -14.27744,0.24401 -5.66453,-0.41978 -9.339432,-0.48741 -14.646939,-0.25605 z" /></g><g
         id="g84"
         transform="matrix(-1,0,0,1,251.28937,-47.804895)"
         style="fill:#f4d7ee;fill-opacity:1;stroke-width:0.99985593;stroke-dasharray:none;stroke:#271a47;stroke-opacity:1" /></g></g><path
     d="m 60.065091,83.511226 c -1.112372,0.07195 -2.042112,0.154968 -2.545721,0.221376 -4.969693,0.680702 -8.478362,2.51805 -10.282502,5.395824 -0.536813,0.852262 -1.029356,2.086382 -1.333737,3.342641 l -0.149431,0.608757 -0.763715,0.02755 c -0.752648,0.02756 -0.763716,0.02756 -0.896538,0.182625 -0.12727,0.149431 -0.132824,0.177079 -0.132824,1.145575 v 0.996151 l 0.160487,0.177078 c 0.160485,0.177079 0.171574,0.182626 0.713908,0.199227 l 0.54788,0.022 0.03876,0.946345 c 0.12177,3.226425 1.090233,5.949235 2.888842,8.118635 0.509142,0.61429 1.693455,1.7488 2.291148,2.19707 1.306065,0.97954 2.523583,1.59937 3.956937,2.01444 5.66146,1.64917 11.555359,-1.00169 17.183614,-7.72572 3.52527,-4.211497 5.074842,-8.135227 4.443943,-11.273107 -0.02755,-0.143878 -0.01113,-0.166021 0.265639,-0.287782 0.680704,-0.298845 1.45549,-0.437203 2.429505,-0.437203 1.090231,0.0056 2.17493,0.265639 2.822426,0.680705 0.403994,0.260094 0.392928,0.237977 0.326519,0.913139 -0.160485,1.57724 0.326514,3.608283 1.344805,5.644861 1.732198,3.447787 5.440096,7.686967 8.843612,10.099867 3.243027,2.29669 6.663149,3.23748 9.961512,2.73941 2.62874,-0.39293 4.93094,-1.5883 6.94539,-3.59721 1.07916,-1.07363 1.78199,-2.04764 2.40736,-3.32051 0.86334,-1.76539 1.295,-3.547395 1.36695,-5.683589 l 0.0331,-1.034888 0.76926,-0.01668 0.77478,-0.01667 0.16057,-0.182624 0.1604,-0.177081 v -1.001786 -1.001688 l -0.1604,-0.160485 -0.16057,-0.160486 h -0.94634 -0.94081 l -0.0554,-0.210287 c -0.0275,-0.110676 -0.094,-0.365256 -0.13837,-0.564487 -0.13836,-0.625362 -0.52021,-1.715596 -0.808,-2.307753 -1.1511,-2.418434 -3.13233,-4.089755 -6.2038,-5.235331 -1.57723,-0.592155 -3.39798,-0.962944 -5.943698,-1.206449 -0.940809,-0.09407 -4.311124,-0.09407 -5.257466,-0.0056 -1.809675,0.17708 -3.104673,0.359721 -4.217041,0.597692 L 89.34074,84.307572 H 79.168922 c -9.99472,0 -10.182885,0 -10.697562,-0.110675 -1.156642,-0.249034 -2.71728,-0.470404 -4.255782,-0.608758 -0.653032,-0.06086 -3.60275,-0.116216 -4.150632,-0.07749 z m 25.291181,2.224739 c -1.339268,0.918673 -2.235803,1.903756 -2.739416,2.999522 -0.08855,0.199228 -0.166022,0.37079 -0.177079,0.381856 -0.0056,0.01113 -0.204774,-0.07745 -0.442735,-0.199228 -0.774786,-0.398459 -1.505296,-0.592155 -2.534654,-0.675169 -1.195379,-0.09407 -2.534649,0.105149 -3.469927,0.514679 l -0.19923,0.08855 -0.226888,-0.40953 c -0.503609,-0.918673 -1.339271,-1.831809 -2.213671,-2.418434 -0.24349,-0.166022 -0.442736,-0.315449 -0.448267,-0.343119 0,-0.022 2.833496,-0.03876 6.29789,-0.0332 5.938171,0 6.286822,0.0056 6.154004,0.09407 z"
     id="path1-6"
     style="fill:#660080;stroke:#261947;stroke-width:1.506;stroke-opacity:1;stroke-dasharray:none" /></svg>
