<?xml version="1.0" encoding="UTF-8" standalone="no"?>
<!-- Created with Inkscape (http://www.inkscape.org/) -->

<svg
   width="158.28999mm"
   height="158.34578mm"
   viewBox="0 0 158.28999 158.34578"
   version="1.1"
   id="svg1"
   xml:space="preserve"
   inkscape:version="1.4.2 (ebf0e940d0, 2025-05-08)"
   sodipodi:docname="customize.svg"
   inkscape:export-filename="customize.svg"
   inkscape:export-xdpi="96"
   inkscape:export-ydpi="96"
   xmlns:inkscape="http://www.inkscape.org/namespaces/inkscape"
   xmlns:sodipodi="http://sodipodi.sourceforge.net/DTD/sodipodi-0.dtd"
   xmlns="http://www.w3.org/2000/svg"
   xmlns:svg="http://www.w3.org/2000/svg"><sodipodi:namedview
     id="namedview1"
     pagecolor="#505050"
     bordercolor="#eeeeee"
     borderopacity="1"
     inkscape:showpageshadow="0"
     inkscape:pageopacity="0"
     inkscape:pagecheckerboard="0"
     inkscape:deskcolor="#505050"
     inkscape:document-units="mm"
     inkscape:zoom="0.7071068"
     inkscape:cx="-178.89801"
     inkscape:cy="22.627416"
     inkscape:window-width="2560"
     inkscape:window-height="1366"
     inkscape:window-x="0"
     inkscape:window-y="0"
     inkscape:window-maximized="1"
     inkscape:current-layer="layer1"><inkscape:page
       x="0"
       y="0"
       width="158.28998"
       height="158.34578"
       id="page2"
       margin="0"
       bleed="0" /></sodipodi:namedview><defs
     id="defs1"><inkscape:path-effect
       effect="mirror_symmetry"
       start_point="109.13712,64.912787"
       end_point="109.13712,206.79254"
       center_point="109.13712,135.85266"
       id="path-effect5"
       is_visible="true"
       lpeversion="1.2"
       lpesatellites=""
       mode="vertical"
       discard_orig_path="false"
       fuse_paths="false"
       oposite_fuse="false"
       split_items="false"
       split_open="false"
       link_styles="false" /><inkscape:path-effect
       effect="mirror_symmetry"
       start_point="109.13712,64.912787"
       end_point="109.13712,206.79254"
       center_point="109.13712,135.85266"
       id="path-effect4"
       is_visible="true"
       lpeversion="1.2"
       lpesatellites=""
       mode="vertical"
       discard_orig_path="false"
       fuse_paths="false"
       oposite_fuse="false"
       split_items="false"
       split_open="false"
       link_styles="false" /></defs><g
     inkscape:groupmode="layer"
     id="layer2"
     inkscape:label="Layer 2"
     transform="matrix(0.99025489,0,0,0.96231482,2.9200812,4.0921597)"
     style="display:inline;fill:#333333;fill-opacity:1"><path
       style="fill:#333333;stroke-width:0.707107"
       d="M 180.57574,325.28414 C 150.27415,317.33978 117.42026,271.61019 96.488837,208.24294 85.789835,175.85305 80.830158,147.71928 81.530215,123.39013 c 0.507937,-17.65242 2.791441,-26.705432 8.533318,-33.830583 7.347616,-9.11773 18.275897,-10.046769 33.469907,-2.845357 4.24339,2.011214 8.54913,5.493138 25.8094,20.8713 38.90726,34.66471 65.96043,58.92943 85.67348,76.84286 10.83689,9.84759 25.01083,22.44819 31.49762,28.00132 16.50347,14.12811 19.22304,17.59793 21.79177,27.80354 1.77908,7.06833 1.77998,35.77667 0.001,43.3472 -5.9304,25.2422 -20.61768,25.30747 -45.10415,0.20043 -16.00625,-16.41188 -26.95,-31.89812 -39.38937,-55.73891 -19.22078,-36.83782 -32.37822,-58.25713 -46.91095,-76.36753 -16.17329,-20.15482 -30.4553,-29.85566 -40.12244,-27.25257 -14.48401,3.90014 -15.14038,34.45345 -1.58177,73.62989 13.68279,39.53523 40.96892,84.67452 73.26812,121.20698 2.75074,3.11127 5.24209,6.0546 5.53633,6.54074 0.82995,1.37122 -7.4424,1.05375 -13.4271,-0.5153 z"
       id="path1"
       transform="scale(0.26458333)" /><path
       style="fill:#333333;stroke-width:0.707107"
       d="m 404.54863,325.44589 c 0.53011,-0.68059 3.06357,-3.62392 5.6299,-6.54074 46.95442,-53.36702 80.56711,-120.97644 82.43734,-165.81654 0.59683,-14.30955 -2.05365,-23.62529 -7.71115,-27.1027 -8.02457,-4.93233 -18.24597,-0.72577 -32.35165,13.31412 -17.05371,16.97417 -33.12577,41.25219 -55.39847,83.68345 -14.49453,27.6132 -25.4381,43.52622 -41.01832,59.64459 -25.42622,26.30446 -40.20328,26.60886 -46.23103,0.95234 -1.78293,-7.58886 -1.78482,-36.29221 -0.003,-43.3472 2.58912,-10.25062 5.20314,-13.5699 22.00111,-27.93703 6.65717,-5.69381 18.9452,-16.57885 27.30674,-24.18897 16.52507,-15.04006 42.27378,-38.21882 62.9325,-56.65129 46.69407,-41.662163 47.20636,-42.098134 52.47962,-44.661339 7.15702,-3.478855 11.9938,-4.770197 17.86701,-4.770197 11.30862,0 18.26307,6.947821 22.35856,22.337276 2.14765,8.07016 2.63499,28.03735 1.02532,42.00944 -5.41313,46.98643 -26.79268,104.78313 -51.92076,140.36069 -18.10534,25.63441 -38.22795,39.95153 -56.15158,39.95153 -3.91112,0 -4.14638,-0.0895 -3.25228,-1.23743 z"
       id="path2"
       transform="scale(0.26458333)" /><path
       style="fill:#333333;stroke-width:0.707107"
       d="m 238.29498,395.00365 c 0,-1.06533 6.36644,-4.16643 18.36126,-8.9438 18.46467,-7.35422 27.45426,-12.17727 41.47096,-22.2498 0.64928,-0.46659 1.31895,-0.46659 1.98855,0 11.01494,7.67532 14.54615,9.94073 20.20361,12.96138 3.69464,1.97265 12.30647,5.92298 19.13741,8.77851 11.51188,4.81231 19.51013,8.78757 18.90272,9.39497 -0.14007,0.14007 -2.63108,-0.10526 -5.53559,-0.54516 -7.5199,-1.13894 -38.28282,-1.10488 -47.35378,0.0524 -5.84446,0.74566 -8.40282,0.77163 -12.02081,0.12203 -10.31351,-1.85174 -48.98946,-1.5159 -54.16555,0.47036 -0.54383,0.20868 -0.98878,0.19027 -0.98878,-0.0409 z"
       id="path4"
       transform="scale(0.26458333)" /><path
       style="fill:#333333;stroke-width:0.707107"
       d="m 328.33025,358.20111 c -4.82645,-2.2472 -9.62208,-7.1292 -9.00619,-9.1684 1.06952,-3.54115 5.81688,-11.61238 8.41992,-14.31514 3.3558,-3.48433 6.42829,-4.48928 13.74211,-4.49477 6.56136,-0.005 10.06523,-1.56816 15.34174,-6.84467 l 3.79662,-3.79662 v 6.58433 c 0,11.6102 -3.18106,20.05497 -10.20436,27.08958 -6.74198,6.75282 -14.48516,8.48644 -22.08984,4.94569 z"
       id="path5"
       transform="scale(0.26458333)" /><path
       style="fill:#333333;stroke-width:0.707107"
       d="m 256.3262,358.97802 c -4.23799,-1.66163 -6.59627,-3.31423 -9.77552,-6.85032 -6.00325,-6.67706 -8.96281,-15.2704 -8.96281,-26.0243 v -6.64675 l 3.79904,3.86022 c 5.23903,5.3234 8.74311,6.90098 15.33932,6.90593 2.89125,0.002 6.52962,0.3507 8.08525,0.77452 3.91802,1.06742 8.55364,6.19583 11.97888,13.25232 l 2.78649,5.74057 -2.14799,2.66547 c -3.24239,4.02352 -9.99816,7.27476 -14.97726,7.20787 -2.20224,-0.0296 -4.95867,-0.42808 -6.1254,-0.88553 z"
       id="path6"
       transform="scale(0.26458333)" /><path
       style="fill:#333333;stroke-width:0.707107"
       d="m 219.44629,382.04659 c 9.52294,-3.5896 15.76304,-6.29265 15.2028,-6.58547 -0.52267,-0.27317 -7.57867,-0.89728 -15.68001,-1.38692 -19.84152,-1.19919 -24.79212,-1.92896 -13.90812,-2.05018 14.24828,-0.1587 30.48375,-0.99866 29.90476,-1.54716 -0.30791,-0.29169 -7.96059,-3.15549 -17.00596,-6.364 -9.04537,-3.2085 -16.32583,-5.95394 -16.17881,-6.10096 0.14703,-0.14703 9.00226,1.86036 19.67829,4.46085 l 19.41097,4.72817 -0.72659,2.72217 c -0.51333,1.9232 -0.49165,3.6024 0.0739,5.72116 0.44027,1.64945 0.74465,3.02371 0.67642,3.05391 -1.03506,0.45815 -36.04633,9.49403 -36.69465,9.47034 -0.49834,-0.0182 6.36282,-2.77307 15.24702,-6.12191 z"
       id="path7"
       transform="scale(0.26458333)" /><path
       style="fill:#333333;stroke-width:0.707107"
       d="m 374.76658,383.32283 c -15.78017,-4.29509 -17.2926,-4.83922 -16.97056,-6.10546 0.19446,-0.76457 0.35356,-3.32414 0.35356,-5.68794 v -4.29781 l 19.01159,-4.73916 c 10.45637,-2.60654 19.13318,-4.61757 19.2818,-4.46896 0.14861,0.14861 -7.13382,2.90245 -16.18317,6.11964 -9.04935,3.21719 -16.70529,6.07773 -17.0132,6.35675 -0.586,0.53103 15.98228,1.37265 29.90476,1.51908 11.16809,0.11746 6.08895,0.88964 -13.43503,2.04254 -8.36154,0.49375 -15.6355,1.12524 -16.16436,1.40331 -0.57637,0.30306 5.37205,2.85049 14.84924,6.35925 8.69595,3.21951 15.94339,5.97153 16.10544,6.1156 0.90723,0.80659 -4.2209,-0.39279 -19.74007,-4.61684 z"
       id="path8"
       transform="scale(0.26458333)" /><path
       style="fill:#333333;stroke-width:0.707107"
       d="m 269.5922,404.57157 c -21.58066,-5.8378 -27.39438,-7.64349 -26.16295,-8.12599 0.8977,-0.35174 11.07472,-0.37585 23.50355,-0.0557 28.01994,0.7218 38.05012,0.72638 61.51829,0.0281 10.50054,-0.31243 20.834,-0.29695 22.96326,0.0344 l 3.87138,0.60242 -27.91301,7.61235 c -15.35215,4.18679 -28.3903,7.56683 -28.97367,7.51119 -0.58336,-0.0556 -13.54644,-3.4787 -28.80685,-7.6068 z"
       id="path9"
       transform="scale(0.26458333)" /><path
       style="fill:#333333;stroke-width:0.707107"
       d="m 418.25365,493.91484 c -27.0646,-4.30488 -45.64151,-12.73634 -61.43146,-27.88173 -14.1041,-13.52837 -22.32204,-28.71727 -25.5488,-47.22088 -0.57999,-3.32592 -1.05453,-7.87978 -1.05453,-10.11968 V 404.62 l 5.76671,-1.55603 c 3.1717,-0.85582 6.19458,-1.72021 6.71752,-1.92088 0.74308,-0.28515 0.95142,0.77163 0.95364,4.83732 0.006,11.84245 3.55128,25.11414 9.31094,34.86001 4.28732,7.25454 16.23569,18.97155 24.01296,23.54801 15.55266,9.15181 33.54976,14.80051 49.46508,15.52547 11.02707,0.5023 18.55966,-0.87422 22.09378,-4.03744 2.15294,-1.927 2.23728,-2.20962 2.14473,-7.18693 -0.074,-3.98126 -0.85259,-7.61682 -3.36205,-15.69945 -3.88949,-12.52749 -4.69892,-18.82531 -2.99348,-23.29093 1.48607,-3.89121 3.4618,-5.71875 11.54404,-10.67818 7.19379,-4.41425 9.13869,-6.41475 9.83261,-10.11367 0.63875,-3.40485 -0.79445,-9.28333 -3.18069,-13.04605 l -1.98352,-3.12768 4.48574,-4.91763 4.48576,-4.91763 1.44638,1.76777 c 3.1116,3.80299 7.21733,10.12982 8.85183,13.64046 1.28146,2.75239 1.71679,4.89743 1.72196,8.48479 0.0117,8.15717 -2.96687,12.14359 -13.90269,18.60669 -7.30302,4.31611 -9.73631,6.79124 -10.89057,11.07784 -1.34127,4.98112 -0.39838,9.08643 6.69595,29.15394 5.89509,16.67524 3.92407,23.50594 -7.86999,27.27386 -4.02491,1.28587 -6.86278,1.56797 -17.86641,1.77606 -9.03013,0.17076 -15.0524,-0.0661 -19.44544,-0.76488 z"
       id="path10"
       transform="scale(0.26458333)" /><path
       style="fill:#333333;stroke-width:0.707107"
       d="m 356.67877,418.68804 c -6.09715,-3.71803 -5.46282,-12.58805 1.14457,-16.00487 2.61915,-1.35441 4.48332,-1.32125 7.5507,0.13431 3.17361,1.50598 5.14389,4.73916 5.14726,8.44652 0.006,6.73055 -7.96721,11.00681 -13.84253,7.42404 z"
       id="path11"
       transform="scale(0.26458333)" /><path
       style="fill:#333333;stroke-width:0.707107"
       d="m 367.38848,388.8547 c -1.56305,-1.37237 -2.6475,-3.08109 -2.93792,-4.62916 -0.25318,-1.34961 -0.34005,-2.57412 -0.19303,-2.72114 0.28531,-0.28531 15.57395,3.74823 16.06376,4.23804 0.15989,0.15989 -0.83359,1.41501 -2.20773,2.78916 -3.37898,3.37897 -7.11641,3.49157 -10.72508,0.3231 z"
       id="path12"
       transform="scale(0.26458333)" /><path
       style="fill:#333333;stroke-width:0.707107"
       d="m 395.36278,371.41237 -4.5061,-0.2533 0.41572,-2.61566 c 0.60176,-3.78613 4.48655,-7.21185 8.17828,-7.21185 3.43632,0 6.6866,2.50703 7.86008,6.06271 1.5598,4.72626 1.4295,4.77008 -11.94798,4.0181 z"
       id="path13"
       transform="scale(0.26458333)" /><path
       style="fill:#333333;stroke-width:0.707107"
       d="m 382.49778,439.77284 c 0.7547,-1.98621 2.69459,-5.92256 4.31087,-8.74746 5.86267,-10.24663 10.13296,-14.84543 26.84881,-28.91434 8.75044,-7.36482 25.0474,-21.14408 36.21547,-30.62057 11.16805,-9.47649 20.73808,-17.22998 21.26671,-17.22998 1.08808,0 3.6196,2.5953 4.2305,4.33707 0.28905,0.82412 -7.00977,8.92833 -25.4734,28.28427 -35.66903,37.39283 -42.73248,44.3724 -49.10055,48.5175 -4.91365,3.19839 -12.57677,6.47113 -17.72357,7.56935 l -1.94702,0.41545 z"
       id="path20"
       transform="scale(0.26458333)" /><path
       style="fill:#333333;stroke-width:0.707107"
       d="m 422.60127,468.08585 c -3.21146,-0.9626 -6.72667,-3.6831 -7.87992,-6.09845 -1.64254,-3.44009 -1.38373,-9.4671 0.5271,-12.27469 2.79491,-4.10658 5.05499,-5.29611 10.06249,-5.29611 3.95493,0 4.79648,0.25673 7.19599,2.19523 1.56151,1.2615 3.30336,3.60225 4.09518,5.50324 1.22167,2.93295 1.27737,3.6862 0.49124,6.6436 -1.07675,4.0507 -5.03173,8.37008 -8.56192,9.35081 -2.86975,0.79725 -3.19587,0.79595 -5.93016,-0.0236 z"
       id="path21"
       transform="scale(0.26458333)" /><path
       style="display:inline;fill:#333333;fill-opacity:1;stroke-width:0.0883883"
       d="m 397.92433,378.3269 c -0.61423,-0.0701 -1.42441,-0.29213 -1.84637,-0.50596 -0.68291,-0.34606 -1.76119,-1.20285 -2.557,-2.03179 -0.78372,-0.81634 -1.68715,-2.11261 -1.49728,-2.14836 0.0612,-0.0115 3.39263,-0.23908 7.40325,-0.5057 4.01062,-0.26661 7.50039,-0.50607 7.75505,-0.53213 l 0.463,-0.0474 -0.18157,0.46469 c -0.73242,1.87446 -2.18242,3.49778 -3.89446,4.35994 -1.45738,0.73393 -3.90807,1.14495 -5.64462,0.9467 z"
       id="path22"
       transform="scale(0.26458333)" /><path
       style="display:inline;fill:#333333;fill-opacity:1;stroke-width:0.0883883"
       d="m 380.15827,382.05668 c -0.55905,-0.21341 -3.93231,-1.47733 -7.49612,-2.80871 l -6.47966,-2.4207 0.42506,-0.42125 c 0.23378,-0.23168 0.6637,-0.58963 0.95538,-0.79544 l 0.53033,-0.3742 4.15426,-0.27613 4.15425,-0.27612 0.60223,0.39922 c 1.37558,0.91186 2.82553,2.58199 3.60016,4.14685 0.48767,0.98515 0.66854,1.59964 0.75648,2.57004 0.0481,0.53063 0.036,0.65501 -0.0632,0.65029 -0.0675,-0.003 -0.58009,-0.18044 -1.13915,-0.39385 z"
       id="path23"
       transform="scale(0.26458333)" /><path
       style="display:inline;fill:#333333;fill-opacity:1;stroke-width:0.0883883"
       d="m 340.56029,385.59943 c -3.85071,-1.54676 -8.19185,-3.3505 -8.28287,-3.44152 -0.0157,-0.0157 0.18802,-0.76043 0.45275,-1.65492 2.34146,-7.9117 5.75651,-14.50793 10.3832,-20.05532 1.26405,-1.51559 2.118,-2.37666 2.59847,-2.62013 0.69615,-0.35277 2.57678,-1.65551 3.54096,-2.45288 0.79744,-0.65948 2.624,-2.45823 3.52235,-3.46872 0.17887,-0.2012 0.79506,-0.66346 1.36931,-1.02724 9.09424,-5.76109 20.31299,-9.18859 32.32129,-9.87466 2.01737,-0.11525 6.99198,-0.11488 8.93951,6.7e-4 9.27695,0.55044 18.38732,2.56175 26.91867,5.94288 4.98659,1.97628 10.40869,4.77975 15.50774,8.01822 0.97207,0.61737 8.26509,5.46375 8.38053,5.56906 0.0396,0.0361 -1.80991,1.80953 -4.11006,3.94087 -2.30014,2.13134 -4.64933,4.30974 -5.22041,4.84089 l -1.03832,0.96572 -1.17139,-0.80338 c -3.35264,-2.29936 -6.00847,-4.06036 -7.31437,-4.84992 -6.72633,-4.06683 -14.04191,-7.09621 -20.79518,-8.61128 -0.71605,-0.16064 -1.30191,-0.31388 -1.30191,-0.34053 0,-0.0267 0.48724,-0.22176 1.08276,-0.43355 2.17416,-0.77325 2.54981,-0.91564 2.51295,-0.95249 -0.0207,-0.0207 -1.12652,0.23394 -2.45746,0.56579 l -2.41988,0.60338 -1.14905,-0.19635 c -4.33342,-0.74053 -8.6815,-1.0211 -13.97892,-0.90203 -6.26832,0.14089 -11.47699,1.11224 -17.30417,3.22699 -10.61011,3.85054 -17.89123,9.96184 -22.36125,18.76859 -0.45648,0.89936 -1.05556,2.17215 -1.33129,2.82843 -0.74989,1.78485 -2.03855,5.66283 -2.60674,7.84447 -0.0538,0.20661 -0.12613,0.37256 -0.16072,0.36879 -0.0346,-0.004 -2.07151,-0.8137 -4.5265,-1.79983 z"
       id="path24"
       transform="scale(0.26458333)" /><path
       style="display:inline;fill:#333333;fill-opacity:1;stroke-width:0.125"
       d="m 330.048,394.9504 c 0.0423,-0.40539 0.077,-0.8783 0.077,-1.0509 v -0.31381 l 5.34375,0.0795 c 4.37347,0.065 8.42301,0.24268 8.46761,0.37145 0.005,0.0142 -0.0111,0.39215 -0.0355,0.83981 l -0.0445,0.81392 -6.94265,-10e-4 -6.94265,-10e-4 z"
       id="path25"
       transform="scale(0.26458333)" /></g><g
     inkscape:label="Layer 1"
     inkscape:groupmode="layer"
     id="layer1"
     transform="translate(-26.320526,-33.259087)"
     style="display:inline"><path
       style="fill:#aa87de;stroke-width:0.16307"
       d="m 127.1376,150.41727 c 0.002,-0.11282 0.24271,-0.7634 0.53693,-1.44572 0.62087,-1.43987 1.96156,-3.57406 3.15695,-5.02544 0.86982,-1.05607 1.12601,-1.28147 7.24275,-6.37237 2.88889,-2.4044 10.59606,-8.93985 12.42023,-10.53198 0.44499,-0.38838 1.3496,0.0931 1.59613,0.84951 l 0.19629,0.6023 -1.26753,1.34171 c -0.69717,0.73795 -3.82629,4.00008 -6.95365,7.24918 -3.12734,3.2491 -6.4628,6.76283 -7.41213,7.80828 -2.55204,2.81041 -5.24784,4.64693 -7.92316,5.39765 -1.38023,0.3873 -1.59548,0.40445 -1.59281,0.12688 z"
       id="path14" /><path
       style="fill:#e9ddaf;stroke-width:0.16307"
       d="m 137.39512,156.93465 c -1.15463,-0.58263 -1.72071,-1.45162 -1.79825,-2.76054 -0.1156,-1.95142 1.16149,-3.40327 3.08838,-3.51099 0.88509,-0.0495 1.11214,0.005 1.8423,0.43662 1.81333,1.07358 2.20093,3.45841 0.8208,5.05011 -1.05131,1.21248 -2.52565,1.50517 -3.95323,0.7848 z"
       id="path15" /><path
       style="fill:#8080ff;stroke-width:0.16307"
       d="m 138.6414,164.22977 c -8.16812,-0.91227 -13.89079,-3.39319 -18.49846,-8.01955 -4.41207,-4.42995 -6.62724,-9.86191 -6.61657,-16.22493 0.01,-5.9835 2.05422,-10.74912 5.74968,-13.40414 4.11368,-2.95551 9.88461,-3.89131 15.61712,-2.53244 2.84333,0.67399 5.2752,1.76338 7.97846,3.57403 l 1.55333,1.04043 -0.90662,0.84106 c -0.49865,0.46259 -1.12603,1.04387 -1.39419,1.29175 l -0.48756,0.45068 -1.21399,-0.83294 c -3.05858,-2.09853 -6.28837,-3.22712 -9.66377,-3.37684 -2.42155,-0.1074 -4.16465,0.13271 -6.1318,0.84466 -3.38814,1.22623 -5.51215,3.34624 -6.58176,6.56933 -0.70046,2.11077 -0.84213,3.26346 -0.75398,6.13446 0.12003,3.9086 0.96612,6.86344 2.77696,9.698 1.00985,1.58076 3.05286,3.69655 4.76125,4.93091 4.74571,3.42888 13.02267,5.73502 17.49338,4.87404 3.63405,-0.69985 3.97564,-1.66032 2.34528,-6.59422 -1.87012,-5.65943 -1.52384,-7.40704 1.82746,-9.22303 2.41304,-1.30758 3.00335,-1.99161 3.00335,-3.48018 0,-0.93581 -0.45954,-2.2471 -1.07286,-3.06134 l -0.41681,-0.55335 1.271,-1.39498 1.271,-1.39498 0.40566,0.51259 c 2.32094,2.93285 2.93689,4.21133 2.94775,6.11846 0.0112,1.95496 -1.03544,3.39687 -3.36427,4.63505 -1.81359,0.96424 -2.60062,1.57943 -2.97741,2.32729 -0.78858,1.56524 -0.60315,2.80988 1.09058,7.31953 1.15606,3.0781 1.23299,3.36345 1.23875,4.5947 0.011,2.35602 -0.89567,3.3937 -3.52131,4.03007 -1.71749,0.41627 -5.427,0.56305 -7.72965,0.30588 z"
       id="path16" /><path
       style="fill:#aaeeff;stroke-width:0.16307"
       d="m 120.81878,144.26342 c -0.65852,-0.33503 -1.2488,-1.15828 -1.39454,-1.94495 -0.13687,-0.73877 0.47321,-1.989 1.2127,-2.48516 1.10089,-0.73865 2.59785,-0.38123 3.48579,0.83227 0.47012,0.64248 0.47012,2.04105 0,2.68352 -0.84203,1.15076 -2.13557,1.50873 -3.30395,0.91432 z"
       id="path17" /><path
       style="fill:#afe9af;stroke-width:0.16307"
       d="m 123.77153,136.51101 c -0.81138,-0.50094 -1.20372,-1.25076 -1.12716,-2.15419 0.0849,-1.00192 0.5911,-1.69098 1.50065,-2.04272 0.94563,-0.3657 1.781,-0.14132 2.48142,0.66648 0.67481,0.77824 0.78493,1.49896 0.37308,2.44174 -0.57555,1.31754 -2.05121,1.81522 -3.22799,1.08869 z"
       id="path18" /><path
       style="fill:#e9afaf;stroke-width:0.16307"
       d="m 131.18697,133.27641 c -0.1337,-0.0495 -0.41409,-0.24672 -0.62311,-0.4383 -1.6492,-1.51169 -0.6836,-4.09153 1.53248,-4.09435 2.2078,-0.003 3.03577,3.11909 1.14159,4.30451 -0.52478,0.32842 -1.49001,0.43579 -2.05096,0.22814 z"
       id="path19" /></g><g
     inkscape:label="Layer 1"
     id="g85"
     style="display:inline;fill:#000000;fill-opacity:1"
     transform="matrix(1.1160562,0,0,1.1160562,-42.65817,-72.446318)"
     inkscape:export-filename="g85.png"
     inkscape:export-xdpi="802.32483"
     inkscape:export-ydpi="802.32483"><g
       id="g99"
       style="fill:#ffffff;fill-opacity:1"><g
         id="g77"
         style="fill:#ffffff;fill-opacity:1"><path
           style="fill:#ffffff;fill-opacity:1;stroke-width:0.264583"
           d="m 87.364822,120.87492 c 3.836176,7.07312 18.601688,26.83717 19.717598,7.87401 0.0497,-10.02409 -0.85762,-9.44118 -7.873961,-15.45519 C 89.312293,104.2147 74.987569,91.493392 68.94882,86.125136 44.18932,71.522225 63.740455,145.32594 84.566698,142.34948 51.060244,105.48625 61.034864,67.347 87.364822,120.87492 Z m 43.544608,0 c -3.83618,7.07312 -18.60169,26.83717 -19.7176,7.87401 -0.0497,-10.02409 0.85762,-9.44118 7.87396,-15.45519 9.89616,-9.07904 24.22089,-21.800348 30.25964,-27.168604 24.7595,-14.602911 5.20836,59.200804 -15.61788,56.224344 33.50645,-36.86323 23.53183,-75.00248 -2.79812,-21.47456 z"
           id="path71"
           sodipodi:nodetypes="cccccc"
           inkscape:path-effect="#path-effect5"
           inkscape:original-d="m 87.364822,120.87492 c 3.836176,7.07312 18.601688,26.83717 19.717598,7.87401 0.0497,-10.02409 -0.85762,-9.44118 -7.873961,-15.45519 C 89.312293,104.2147 74.987569,91.493392 68.94882,86.125136 44.18932,71.522225 63.740455,145.32594 84.566698,142.34948 51.060244,105.48625 61.034864,67.347 87.364822,120.87492 Z" /><path
           id="path83"
           style="display:inline;fill:#ffffff;fill-opacity:1;stroke-width:0.264583"
           d="m 142.15128,198.63862 c 6.83114,5.47333 13.11959,5.83335 14.73491,7.86498 -4.82795,-0.69463 -10.11546,-0.77315 -14.71685,0.0444 -4.60139,-0.81761 -9.55044,-0.72522 -14.37839,-0.0306 1.61532,-2.03163 7.52893,-2.40499 14.36033,-7.87887 z"
           transform="matrix(-1,0,0,1,251.28937,-47.804896)" /><path
           id="path74"
           style="fill:#ffffff;fill-opacity:1;stroke-width:0.264583"
           d="m 83.125226,148.90568 10.925589,3.91489 -11.538637,0.34774 11.558084,0.78066 -10.800109,4.0376 12.246606,-3.27453 -0.46488,-1.17239 0.0065,-0.46534 0.424133,-1.14877 z m 52.023874,0 -12.1577,3.01986 0.20975,1.25249 -0.0417,0.40607 -0.40191,1.12794 12.24661,3.27453 -10.80011,-4.0376 11.55808,-0.78066 -11.53863,-0.34774 z"
           sodipodi:nodetypes="cccccccccccccccccccc" /><path
           style="fill:#ffffff;fill-opacity:1;stroke-width:0.264583"
           d="m 104.57859,147.92813 c -3.63865,-8.96971 -5.275827,-1.19057 -10.077201,-7.59241 -1.081836,8.83493 6.287821,13.05903 10.077201,7.59241 z m 9.11707,0 c 3.63865,-8.96971 5.27582,-1.19057 10.0772,-7.59241 1.08183,8.83493 -6.28782,13.05903 -10.0772,7.59241 z"
           id="path75"
           sodipodi:nodetypes="ccc"
           inkscape:path-effect="#path-effect4"
           inkscape:original-d="m 104.57859,147.92813 c -3.63865,-8.96971 -5.275827,-1.19057 -10.077201,-7.59241 -1.081836,8.83493 6.287821,13.05903 10.077201,7.59241 z" /><path
           id="path77"
           style="fill:#ffffff;fill-opacity:1;stroke-width:0.264583"
           d="m 94.489301,158.84919 14.644159,3.92184 14.28022,-3.9098 c -5.30751,-0.23135 -8.61292,-0.17582 -14.27744,0.24401 -5.66453,-0.41978 -9.339432,-0.48741 -14.646939,-0.25605 z" /></g><g
         id="g84"
         transform="matrix(-1,0,0,1,251.28937,-47.804895)"
         style="fill:#ffffff;fill-opacity:1" /></g></g></svg>
